<svg xmlns="http://www.w3.org/2000/svg" viewBox="0 0 100 100" width="512" height="512">
  <rect width="100" height="100" fill="#121212"/>
  <g transform="translate(26.8,23) scale(1.317)" fill="#FFCC00">
    <path d="M21.2,16.5l3.5-2.1l3.5-2.1l3.5-2.1l3.5-2.1V0l-3.5,2.1l-3.5,2.1l-3.5,2.1l-3.5,2.1l-3.5,2.1v4l-3.5-2.1l-3.5-2.1L7,8.3L3.5,6.2L0,4v8.1l3.5,2.1L7,16.4l3.5,2.1l3.5,2.1l3.5,2.1L14,24.8l-3.5,2.1L7,29l-3.5,2.1L0,32.9V41l3.5-2.1L7,36.8l3.5-2.1l3.5-2.1l3.5-2.1v-4l3.5,2.1l3.5,2.1l3.5,2.1l3.5,2.1L35,37v-8.1l-3.5-2.1L28,24.6l-3.5-2.1L21,20.4l-3.5-2.1L21.2,16.5z"/>
  </g>
</svg>
